<?xml version="1.0" encoding="UTF-8"?>
<!-- Generated by Pixelmator Pro 3.8 -->
<svg width="1000" height="311" viewBox="0 0 1000 311" xmlns="http://www.w3.org/2000/svg">
    <g id="Group">
        <g id="text">
            <path id="SCHOOL" fill="#0F172A" fill-rule="evenodd" stroke="none" d="M 909.884094 166.005249 L 929.222107 166.005249 L 929.222107 292.020782 L 997.905334 292.020782 L 997.905334 308.213257 L 909.884094 308.213257 Z M 862.059204 237.252136 C 862.059204 216.36055 859.915833 201.438232 855.629089 192.484695 C 851.342285 183.531158 844.308899 179.054474 834.528748 179.054474 C 824.812073 179.054474 817.810425 183.531158 813.523621 192.484695 C 809.236877 201.438232 807.093506 216.36055 807.093506 237.252136 C 807.093506 258.0802 809.236877 272.970764 813.523621 281.924316 C 817.810425 290.877838 824.812073 295.354523 834.528748 295.354523 C 844.308899 295.354523 851.342285 290.893707 855.629089 281.971924 C 859.915833 273.05014 862.059204 258.143707 862.059204 237.252136 Z M 882.159302 237.252136 C 882.159302 262.017212 878.237732 280.495483 870.394531 292.687531 C 862.551331 304.879578 850.59613 310.975494 834.528748 310.975494 C 818.461304 310.975494 806.521973 304.911316 798.710571 292.782776 C 790.899109 280.654236 786.993408 262.144226 786.993408 237.252136 C 786.993408 212.423553 790.914978 193.913513 798.758179 181.721466 C 806.601379 169.529419 818.52478 163.433502 834.528748 163.433502 C 850.59613 163.433502 862.551331 169.529419 870.394531 181.721466 C 878.237732 193.913513 882.159302 212.423553 882.159302 237.252136 Z M 748.50415 237.252136 C 748.50415 216.36055 746.360779 201.438232 742.073975 192.484695 C 737.787231 183.531158 730.753845 179.054474 720.973694 179.054474 C 711.257019 179.054474 704.255371 183.531158 699.968567 192.484695 C 695.681824 201.438232 693.538452 216.36055 693.538452 237.252136 C 693.538452 258.0802 695.681824 272.970764 699.968567 281.924316 C 704.255371 290.877838 711.257019 295.354523 720.973694 295.354523 C 730.753845 295.354523 737.787231 290.893707 742.073975 281.971924 C 746.360779 273.05014 748.50415 258.143707 748.50415 237.252136 Z M 768.604248 237.252136 C 768.604248 262.017212 764.682678 280.495483 756.839478 292.687531 C 748.996277 304.879578 737.041077 310.975494 720.973694 310.975494 C 704.90625 310.975494 692.966919 304.911316 685.155518 292.782776 C 677.344055 280.654236 673.438354 262.144226 673.438354 237.252136 C 673.438354 212.423553 677.359924 193.913513 685.203125 181.721466 C 693.046326 169.529419 704.969727 163.433502 720.973694 163.433502 C 737.041077 163.433502 748.996277 169.529419 756.839478 181.721466 C 764.682678 193.913513 768.604248 212.423553 768.604248 237.252136 Z M 561.788513 166.005249 L 581.126526 166.005249 L 581.126526 220.488159 L 633.805908 220.488159 L 633.805908 166.005249 L 653.143921 166.005249 L 653.143921 308.213257 L 633.805908 308.213257 L 633.805908 236.680634 L 581.126526 236.680634 L 581.126526 308.213257 L 561.788513 308.213257 Z M 537.397888 303.165009 C 532.507813 305.768524 527.490784 307.72113 522.346619 309.022888 C 517.202515 310.324646 511.740936 310.975494 505.9617 310.975494 C 487.734985 310.975494 473.588867 304.530334 463.522888 291.639801 C 453.456909 278.749237 448.424011 260.620209 448.424011 237.252136 C 448.424011 214.011047 453.488647 195.897873 463.618134 182.912094 C 473.74765 169.9263 487.86203 163.433502 505.9617 163.433502 C 511.740936 163.433502 517.202515 164.084366 522.346619 165.386124 C 527.490784 166.687881 532.507813 168.640488 537.397888 171.243988 L 537.397888 190.960693 C 532.698303 187.087189 527.649536 184.13446 522.251343 182.102463 C 516.85321 180.070465 511.42337 179.054474 505.9617 179.054474 C 493.450684 179.054474 484.083435 183.880402 477.85968 193.53244 C 471.635925 203.184479 468.524109 217.757568 468.524109 237.252136 C 468.524109 256.683197 471.635925 271.224518 477.85968 280.876556 C 484.083435 290.528595 493.450684 295.354523 505.9617 295.354523 C 511.550415 295.354523 517.027832 294.338531 522.394226 292.306549 C 527.760681 290.274536 532.76178 287.321808 537.397888 283.448303 Z M 418.031891 170.862991 L 418.031891 190.389206 C 412.189178 186.642685 406.330688 183.816986 400.456207 181.911972 C 394.581726 180.006958 388.65976 179.054474 382.690033 179.054474 C 373.608398 179.054474 366.432159 181.165817 361.161011 185.38858 C 355.889862 189.611359 353.254333 195.310394 353.254333 202.485931 C 353.254333 208.772461 354.984894 213.56665 358.446075 216.868652 C 361.907257 220.170685 368.369049 222.932892 377.831696 225.155396 L 387.929382 227.441391 C 401.266022 230.552902 410.982544 235.442352 417.079285 242.109863 C 423.176025 248.77739 426.224365 257.857788 426.224365 269.351318 C 426.224365 282.876862 422.032898 293.195496 413.649872 300.307526 C 405.266876 307.419556 393.073547 310.975494 377.069611 310.975494 C 370.401306 310.975494 363.701355 310.261139 356.969513 308.832397 C 350.237701 307.403625 343.474213 305.260529 336.678894 302.403015 L 336.678894 281.924316 C 343.9823 286.559814 350.888672 289.957031 357.398193 292.116028 C 363.907715 294.275055 370.464813 295.354523 377.069611 295.354523 C 386.786285 295.354523 394.343597 293.179688 399.74176 288.829926 C 405.139923 284.480164 407.838959 278.400085 407.838959 270.589569 C 407.838959 263.477539 405.981354 258.04837 402.266174 254.301849 C 398.550995 250.555328 392.089172 247.666122 382.880554 245.634109 L 372.592346 243.252869 C 359.382721 240.268356 349.793243 235.759918 343.823486 229.727386 C 337.85376 223.69487 334.868958 215.598724 334.868958 205.438675 C 334.868958 192.738647 339.139771 182.562881 347.681549 174.911102 C 356.223358 167.259323 367.575165 163.433502 381.737396 163.433502 C 387.199066 163.433502 392.946442 164.052612 398.979675 165.290863 C 405.012909 166.529114 411.363586 168.386475 418.031891 170.862991 Z"/>
            <path id="WP-BLOCK-" fill="#0F172A" fill-rule="evenodd" stroke="none" d="M 925.164612 2.646851 L 938.977478 2.646851 L 938.977478 47.82251 L 981.913025 2.646851 L 998.039368 2.646851 L 958.506042 44.14859 L 999.196106 104.224014 L 982.593506 104.224014 L 949.456238 53.333374 L 938.977478 64.491226 L 938.977478 104.224014 L 925.164612 104.224014 Z M 907.742737 100.618134 C 904.249878 102.477783 900.666199 103.872498 896.991821 104.802322 C 893.317505 105.732147 889.416382 106.197052 885.28833 106.197052 C 872.269287 106.197052 862.164917 101.593353 854.974915 92.385818 C 847.784912 83.178284 844.189941 70.228973 844.189941 53.537476 C 844.189941 36.936707 847.807556 23.998749 855.042908 14.723175 C 862.278259 5.447601 872.360046 0.809906 885.28833 0.809906 C 889.416382 0.809906 893.317505 1.27478 896.991821 2.20462 C 900.666199 3.13446 904.249878 4.529175 907.742737 6.388824 L 907.742737 20.472198 C 904.385925 17.705383 900.779724 15.596313 896.923828 14.144867 C 893.068054 12.693451 889.189575 11.967743 885.28833 11.967743 C 876.351868 11.967743 869.661011 15.414825 865.215454 22.309143 C 860.769958 29.203461 858.54718 39.612793 858.54718 53.537476 C 858.54718 67.416824 860.769958 77.803482 865.215454 84.6978 C 869.661011 91.592102 876.351868 95.039215 885.28833 95.039215 C 889.280334 95.039215 893.192749 94.313507 897.025879 92.862076 C 900.859009 91.410629 904.431335 89.301559 907.742737 86.53476 Z M 815.200623 53.537476 C 815.200623 38.614929 813.669678 27.956146 810.607727 21.56076 C 807.545715 15.165375 802.521973 11.967743 795.536011 11.967743 C 788.595581 11.967743 783.59436 15.165375 780.53241 21.56076 C 777.470459 27.956146 775.939453 38.614929 775.939453 53.537476 C 775.939453 68.414688 777.470459 79.050812 780.53241 85.446182 C 783.59436 91.841568 788.595581 95.039215 795.536011 95.039215 C 802.521973 95.039215 807.545715 91.85289 810.607727 85.480209 C 813.669678 79.107513 815.200623 68.460037 815.200623 53.537476 Z M 829.557861 53.537476 C 829.557861 71.226837 826.756775 84.425613 821.15448 93.134216 C 815.552185 101.842804 807.012817 106.197052 795.536011 106.197052 C 784.059326 106.197052 775.53125 101.865494 769.951599 93.20224 C 764.37207 84.539001 761.582275 71.317535 761.582275 53.537476 C 761.582275 35.802795 764.383362 22.581329 769.985657 13.872742 C 775.587952 5.164093 784.104675 0.809906 795.536011 0.809906 C 807.012817 0.809906 815.552185 5.164093 821.15448 13.872742 C 826.756775 22.581329 829.557861 35.802795 829.557861 53.537476 Z M 687.139771 2.646851 L 700.952637 2.646851 L 700.952637 92.657959 L 750.012085 92.657959 L 750.012085 104.224014 L 687.139771 104.224014 Z M 616.507751 52.993195 L 616.507751 92.930099 L 632.770203 92.930099 C 640.754028 92.930099 646.44696 91.535385 649.849121 88.745911 C 653.251343 85.956436 654.952393 81.36409 654.952393 74.968704 C 654.952393 66.532257 653.160706 60.76062 649.576965 57.653641 C 645.993347 54.546661 640.391113 52.993195 632.770203 52.993195 Z M 616.507751 13.940765 L 616.507751 41.835358 L 632.497986 41.835358 C 639.120972 41.835358 643.91803 40.565369 646.889221 38.02536 C 649.860535 35.485352 651.346069 32.28772 651.346069 28.432343 C 651.346069 23.306946 649.883179 19.610413 646.957275 17.34256 C 644.031372 15.074677 639.211731 13.940765 632.497986 13.940765 Z M 602.694885 2.646851 L 632.770203 2.646851 C 643.158264 2.646851 651.164673 4.892029 656.789612 9.382385 C 662.414612 13.872742 665.22699 20.222687 665.22699 28.432343 C 665.22699 32.832001 663.741455 36.823395 660.770142 40.406616 C 657.79895 43.989838 653.342102 46.234985 647.399536 47.142151 C 654.067932 48.140015 659.295898 50.986115 663.083618 55.680618 C 666.87146 60.375107 668.765259 67.25795 668.765259 76.329422 C 668.765259 85.536942 665.748779 92.487839 659.715454 97.182327 C 653.682312 101.876816 644.700562 104.224014 632.770203 104.224014 L 602.694885 104.224014 Z M 346.279816 16.366516 C 343.324951 9.991028 341.458771 5.792511 334.926971 5.170502 L 331.19455 4.859497 C 330.261444 3.926544 330.416962 1.749542 331.661102 1.127533 C 335.860107 1.438507 342.858429 1.593994 347.679474 1.593994 C 352.033997 1.593994 359.965454 1.438507 365.408569 1.127533 C 366.808258 1.593994 366.65274 3.770996 365.719635 4.859497 L 362.1427 5.170502 C 358.876831 5.481506 357.01059 6.41452 357.01059 7.814026 C 357.01059 9.680023 360.276489 17.610504 365.097534 28.651031 C 373.80658 48.088531 382.982178 67.526016 392.002228 86.652527 C 395.73468 78.877518 399.933685 70.16951 403.977142 61.461517 C 405.376801 58.507019 406.465424 55.863525 406.465424 55.086014 C 406.465424 54.308502 405.998871 52.908997 405.221283 51.04303 C 399.778168 38.602997 394.023987 26.163025 388.114258 13.723022 C 385.781494 8.902527 383.4487 5.637024 378.161102 5.170502 L 374.42865 4.859497 C 373.339996 3.615509 373.495544 1.749542 374.739685 1.127533 C 379.249725 1.438507 385.159424 1.593994 391.380157 1.593994 C 399.156067 1.593994 404.910248 1.438507 408.487183 1.127533 C 409.575806 1.593994 409.731323 3.615509 408.798248 4.859497 L 404.75473 5.170502 C 398.689545 5.637024 398.533997 6.725525 401.488861 13.723022 C 404.75473 21.342499 409.109253 31.139008 413.463776 40.779999 C 416.41861 34.715515 419.217957 28.806519 422.639343 20.409515 C 428.238037 7.192017 427.460419 5.481506 422.483856 5.170502 L 417.818268 4.859497 C 416.729675 3.304504 417.04071 1.593994 418.129333 1.127533 C 422.328308 1.438507 426.993866 1.593994 432.748047 1.593994 C 437.880157 1.593994 444.100891 1.438507 447.677826 1.127533 C 448.766449 1.593994 448.921936 3.615509 447.988861 4.859497 L 443.478821 5.170502 C 436.947052 5.637024 434.147705 12.634521 430.726318 19.01004 C 427.460419 24.763519 420.92865 38.291992 418.595886 43.734497 C 417.818268 45.28952 417.196228 46.844513 417.196228 47.466492 C 417.196228 48.088531 417.507233 49.33252 418.284851 51.198517 C 423.572479 63.172012 429.015594 74.834503 434.147705 86.652527 C 438.968781 75.767517 443.634338 64.882507 448.144379 53.84201 C 451.254761 46.378021 459.497223 25.696503 460.585846 22.897522 C 462.607574 17.29953 465.251404 10.613007 465.251404 8.747009 C 465.251404 6.570007 463.385162 5.326019 460.119263 5.170502 L 455.609283 4.859497 C 454.365082 3.460022 454.52063 1.749542 455.76474 1.127533 C 461.674469 1.438507 465.873444 1.593994 470.69455 1.593994 C 476.604248 1.593994 481.114288 1.438507 485.157745 1.127533 C 485.644928 1.310181 485.965179 1.731262 486.109192 2.250732 C 494.14212 1.271362 503.535767 1.127533 515.950378 1.127533 C 528.858398 1.127533 538.500549 2.838043 545.809937 7.347504 C 552.963745 11.856995 558.251404 19.942993 558.251404 30.672516 C 558.251404 44.978516 549.386841 52.131531 542.699585 55.397003 C 535.85675 58.662506 527.614319 60.062012 521.238037 60.062012 C 520.149414 59.59552 520.149414 57.263016 521.08252 56.952026 C 537.878479 53.84201 543.943665 44.356537 543.943665 30.828033 C 543.943665 15.744537 535.079163 5.947998 518.905273 5.947998 C 510.662781 5.947998 510.507233 6.570007 510.507233 11.546021 L 510.507233 80.899017 C 510.507233 97.226517 510.818268 99.248016 520.771484 100.336517 L 524.970459 100.803009 C 525.903564 101.580521 525.592529 104.224014 524.659424 104.690521 C 515.794861 104.379517 510.662781 104.224014 504.442017 104.224014 C 497.910248 104.224014 492.311615 104.379517 485.468811 104.690521 C 484.535645 104.224014 484.224609 101.736023 485.157745 100.803009 L 488.423645 100.336517 C 497.443695 99.092514 497.75473 97.226517 497.75473 80.899017 L 497.75473 23.519501 C 497.75473 10.302032 497.443695 7.658508 490.445374 6.881012 L 484.84671 6.259003 C 484.488953 5.952393 484.265564 5.494629 484.171021 4.996094 L 482.513947 5.170502 C 474.738007 5.947998 473.338348 10.613007 464.007263 32.227509 L 452.654419 58.507019 C 445.811615 74.368011 439.590851 89.60701 433.2146 106.245529 C 432.748047 106.556519 432.125977 106.712006 431.348389 106.712006 C 430.57077 106.712006 429.793213 106.556519 429.171112 106.245529 C 424.19455 92.406006 415.174469 72.968521 410.353394 62.083511 C 404.75473 73.435013 395.423645 93.33902 390.913605 106.245529 C 390.447021 106.556519 389.824982 106.712006 389.047363 106.712006 C 388.269806 106.712006 387.492188 106.556519 386.7146 106.245529 C 384.070801 99.714508 378.005554 85.719528 375.983856 81.210022 C 366.03067 59.59552 356.388519 37.981018 346.279816 16.366516 Z"/>
        </g>
        <g id="Group-copy">
            <g id="g1">
                <path id="Path" fill="#0F172A" stroke="none" d="M 0.10591 1.532593 L 243.612686 1.532593 L 290.862579 58.224182 L 0.10591 58.224182 L 0.10591 1.532593 Z"/>
                <path id="path1" fill="#0F172A" stroke="none" d="M 47.34803 85.843613 L 290.862579 85.843613 L 243.612686 142.535217 L 47.34803 142.535217 L 47.34803 85.843613 Z"/>
                <path id="path2" fill="#0F172A" stroke="none" d="M 96.416153 170.154556 L 243.612686 170.154556 L 290.862579 226.846252 L 96.416153 226.846252 L 96.416153 170.154556 Z"/>
                <path id="path3" fill="#0F172A" stroke="none" d="M 0.10591 254.465576 L 290.862579 254.465576 L 247.971695 311.157196 L 0.10591 311.157196 L 0.10591 254.465576 Z"/>
            </g>
        </g>
    </g>
</svg>
