<svg xmlns="http://www.w3.org/2000/svg" width="1000" height="311" viewBox="0 0 1000 311"><path fill="#fafaf9" fill-rule="evenodd" d="M909.884 166.005h19.338v126.016h68.683v16.192h-88.02Zm-47.825 71.247q0-31.337-6.43-44.767t-21.1-13.43q-14.576 0-21.005 13.43-6.43 13.43-6.43 44.767 0 31.242 6.43 44.672t21.005 13.43q14.67 0 21.1-13.382t6.43-44.72m20.1 0q0 37.147-11.764 55.436-11.766 18.287-35.866 18.287-24.102 0-35.818-18.192-11.718-18.194-11.718-55.53 0-37.245 11.765-55.532t35.77-18.287q24.101 0 35.867 18.287 11.764 18.29 11.764 55.531m-133.655 0q0-31.337-6.43-44.767t-21.1-13.43q-14.576 0-21.005 13.43-6.43 13.43-6.43 44.767 0 31.242 6.43 44.672t21.005 13.43q14.67 0 21.1-13.382t6.43-44.72m20.1 0q0 37.147-11.765 55.436-11.764 18.287-35.865 18.287t-35.818-18.192q-11.718-18.194-11.718-55.53 0-37.245 11.765-55.532t35.77-18.287q24.102 0 35.866 18.287 11.766 18.29 11.765 55.531M561.79 166.005h19.338v54.483h52.679v-54.483h19.338v142.208h-19.338v-71.532h-52.68v71.532H561.79Zm-24.391 137.16q-7.335 3.906-15.051 5.858-7.716 1.953-16.385 1.952-27.34 0-42.44-19.335-15.098-19.335-15.098-54.388 0-34.861 15.194-54.34 15.195-19.478 42.344-19.478 8.668 0 16.385 1.952 7.716 1.952 15.05 5.858v19.717q-7.048-5.811-15.146-8.859-8.097-3.048-16.29-3.048-18.766 0-28.101 14.478t-9.336 43.72q0 29.147 9.336 43.625 9.334 14.478 28.102 14.478 8.382 0 16.432-3.048t15.004-8.859ZM418.032 170.863v19.526q-8.764-5.62-17.576-8.477-8.811-2.858-17.766-2.858-13.623 0-21.529 6.335-7.907 6.333-7.907 17.097 0 9.429 5.192 14.383 5.191 4.953 19.386 8.286l10.097 2.286q20.006 4.667 29.15 14.669 9.145 10.001 9.145 27.241 0 20.288-12.574 30.957-12.574 10.668-36.58 10.667-10.004 0-20.1-2.143-10.098-2.142-20.291-6.429v-20.479q10.955 6.954 20.72 10.192 9.764 3.24 19.67 3.239 14.576 0 22.673-6.525t8.097-18.24q0-10.668-5.573-16.288t-19.385-8.668l-10.289-2.381q-19.814-4.477-28.769-13.526t-8.954-24.288q0-19.05 12.813-30.528 12.812-11.477 34.055-11.477 8.193 0 17.243 1.857t19.052 5.572M925.165 2.647h13.812v45.176l42.936-45.176h16.126l-39.533 41.502 40.69 60.075h-16.602l-33.138-50.89-10.479 11.157v39.733h-13.812Zm-17.422 97.971q-5.24 2.79-10.751 4.184-5.512 1.395-11.704 1.395-19.528 0-30.313-13.811T844.19 53.537q0-24.9 10.853-38.814Q865.896.81 885.288.81q6.192 0 11.704 1.395 5.511 1.395 10.75 4.184v14.083q-5.034-4.15-10.818-6.327t-11.636-2.177q-13.404 0-20.073 10.341-6.668 10.341-6.668 31.228 0 20.82 6.668 31.16 6.669 10.342 20.073 10.342 5.988 0 11.738-2.177t10.717-6.327ZM815.2 53.538q0-22.385-4.593-31.977-4.593-9.594-15.072-9.593-10.41 0-15.004 9.593t-4.593 31.976q0 22.316 4.593 31.91 4.593 9.592 15.004 9.592 10.479 0 15.072-9.559t4.593-31.943m14.357 0q0 26.534-8.404 39.596-8.403 13.063-25.618 13.063-17.216 0-25.584-12.995-8.37-12.994-8.37-39.665 0-26.601 8.404-39.664T795.536.81q17.215 0 25.618 13.063 8.404 13.063 8.404 39.664M687.14 2.646h13.813v90.011h49.06v11.566H687.14Zm-70.632 50.346V92.93h16.262q11.976 0 17.08-4.184 5.102-4.185 5.102-13.777 0-12.655-5.375-17.315-5.376-4.66-16.807-4.66Zm0-39.052v27.894h15.99q9.935 0 14.391-3.81 4.457-3.81 4.457-9.593 0-7.688-4.389-11.09-4.389-3.4-14.459-3.401ZM602.695 2.647h30.075q15.582 0 24.02 6.735t8.437 19.05q0 6.6-4.457 11.975-4.457 5.374-13.37 6.735 10.002 1.497 15.684 8.539 5.68 7.041 5.681 20.648 0 13.812-9.05 20.853-9.049 7.042-26.945 7.042h-30.075ZM346.28 16.367c-2.955-6.376-4.821-10.574-11.353-11.196l-3.732-.312c-.934-.932-.778-3.11.466-3.731 4.2.31 11.197.466 16.018.466 4.355 0 12.286-.155 17.73-.466 1.4.466 1.244 2.643.31 3.731l-3.576.312c-3.266.31-5.132 1.244-5.132 2.643 0 1.866 3.265 9.797 8.087 20.837 8.709 19.438 17.884 38.875 26.904 58.002 3.733-7.775 7.932-16.483 11.975-25.191 1.4-2.955 2.488-5.598 2.488-6.376 0-.777-.466-2.177-1.244-4.043-5.443-12.44-11.197-24.88-17.107-37.32-2.333-4.82-4.665-8.086-9.953-8.552l-3.732-.312c-1.089-1.243-.933-3.11.31-3.731 4.51.31 10.42.466 16.641.466 7.776 0 13.53-.155 17.107-.466 1.089.466 1.244 2.488.311 3.731l-4.043.312c-6.065.466-6.221 1.555-3.266 8.552 3.266 7.62 7.62 17.416 11.975 27.057 2.955-6.064 5.754-11.973 9.175-20.37 5.599-13.218 4.821-14.928-.155-15.24l-4.666-.31c-1.088-1.555-.777-3.266.311-3.732 4.2.31 8.865.466 14.619.466 5.132 0 11.353-.155 14.93-.466 1.088.466 1.244 2.488.31 3.731l-4.51.312c-6.53.466-9.33 7.464-12.752 13.839-3.266 5.754-9.797 19.282-12.13 24.724-.778 1.556-1.4 3.11-1.4 3.732s.311 1.867 1.089 3.733c5.287 11.973 10.73 23.636 15.863 35.454 4.82-10.885 9.486-21.77 13.996-32.811 3.11-7.464 11.353-28.145 12.442-30.944 2.022-5.598 4.665-12.285 4.665-14.151 0-2.177-1.866-3.421-5.132-3.576l-4.51-.312c-1.244-1.399-1.088-3.11.156-3.731 5.91.31 10.108.466 14.93.466 5.91 0 10.42-.155 14.463-.466.487.182.807.603.951 1.123 8.033-.98 17.427-1.123 29.841-1.123 12.908 0 22.55 1.71 29.86 6.22 7.154 4.509 12.441 12.595 12.441 23.325 0 14.306-8.864 21.459-15.551 24.724-6.843 3.266-15.086 4.665-21.462 4.665-1.089-.466-1.089-2.799-.155-3.11 16.795-3.11 22.86-12.595 22.86-26.124 0-15.083-8.864-24.88-25.038-24.88-8.242 0-8.398.622-8.398 5.598v69.353c0 16.328.311 18.349 10.264 19.438l4.2.466c.933.778.622 3.421-.312 3.888-8.864-.311-13.996-.467-20.217-.467-6.532 0-12.13.156-18.973.467-.933-.467-1.244-2.955-.311-3.888l3.266-.466c9.02-1.244 9.33-3.11 9.33-19.438v-57.38c0-13.217-.31-15.86-7.309-16.638l-5.598-.622c-.358-.307-.581-.764-.676-1.263l-1.657.175c-7.776.777-9.176 5.442-18.507 27.057l-11.353 26.279a1221 1221 0 0 0-19.44 47.739q-.699.466-1.866.466c-.777 0-1.555-.155-2.177-.466-4.976-13.84-13.997-33.277-18.818-44.162-5.598 11.351-14.93 31.255-19.44 44.162q-.699.466-1.866.466a6.2 6.2 0 0 1-2.332-.466c-2.644-6.531-8.71-20.526-10.731-25.036-9.953-21.614-19.595-43.229-29.704-64.843"/><path fill="#fafaf9" d="M.106 1.43h243.597l47.267 56.706H.106z"/><path fill="#fff" d="M47.365 85.765H290.97l-47.267 56.713H47.365z"/><path fill="#fafaf9" d="M96.452 170.107h147.25l47.268 56.713H96.452zM.106 254.45H290.97l-42.907 56.712H.106z"/></svg>